<svg id="svg" version="1.1" xmlns="http://www.w3.org/2000/svg" xmlns:xlink="http://www.w3.org/1999/xlink" width="400" height="335.3191489361702" viewBox="0, 0, 400,335.3191489361702"><g id="svgg"><path id="path0" d="M191.288 95.030 C 190.469 95.909,190.422 96.725,191.126 97.800 C 191.412 98.237,191.526 98.659,191.377 98.737 C 191.063 98.901,186.023 98.198,184.060 97.715 C 181.092 96.985,174.967 95.345,174.456 95.143 C 174.004 94.964,170.805 100.497,170.805 101.457 C 170.805 101.600,168.365 106.974,167.123 109.564 C 165.182 113.613,157.875 130.392,155.141 137.081 C 154.310 139.111,153.343 141.405,152.990 142.180 C 152.637 142.954,152.349 143.671,152.349 143.773 C 152.349 143.875,151.921 144.902,151.398 146.056 C 150.875 147.210,150.130 148.909,149.741 149.832 C 149.353 150.755,146.283 157.626,142.919 165.101 C 132.647 187.932,132.652 187.919,133.374 187.919 C 134.393 187.919,144.258 176.814,144.286 175.636 C 144.297 175.197,146.157 173.574,147.232 173.067 C 147.647 172.871,147.987 172.597,147.987 172.457 C 147.987 172.317,148.482 171.896,149.089 171.521 C 149.695 171.147,150.639 170.455,151.186 169.984 C 152.592 168.775,152.591 168.775,152.746 172.399 C 152.823 174.199,153.079 176.024,153.316 176.455 C 153.960 177.629,154.109 177.124,153.528 175.733 C 152.464 173.186,153.063 157.085,154.403 152.210 C 154.763 150.902,155.189 149.234,155.349 148.502 C 155.510 147.771,155.974 146.902,156.381 146.573 C 158.536 144.827,162.540 147.212,161.879 149.847 C 161.719 150.486,161.851 150.734,162.511 151.035 C 163.237 151.365,163.464 151.922,164.257 155.322 C 165.668 161.368,166.184 163.080,166.531 162.865 C 166.722 162.747,166.754 162.971,166.611 163.423 C 166.447 163.937,166.489 164.105,166.743 163.948 C 166.947 163.822,167.114 162.848,167.114 161.785 C 167.114 158.685,168.135 149.239,168.569 148.325 C 170.166 144.962,174.605 147.113,173.840 150.880 C 173.488 152.610,172.819 160.547,172.819 162.987 C 172.819 164.045,172.953 164.430,173.322 164.430 C 173.599 164.430,173.826 164.581,173.826 164.765 C 173.826 164.950,174.045 165.101,174.313 165.101 C 176.340 165.101,176.437 165.390,176.562 171.776 L 176.678 177.701 177.789 179.433 C 180.145 183.102,182.076 184.504,184.826 184.540 C 189.255 184.599,192.513 181.084,193.122 175.587 C 193.352 173.515,193.893 172.880,194.530 173.933 C 194.678 174.177,195.456 174.635,196.260 174.951 C 197.064 175.268,197.943 175.747,198.213 176.018 C 198.484 176.288,199.109 176.608,199.604 176.729 C 200.099 176.850,200.579 177.039,200.671 177.149 C 200.949 177.480,202.142 178.194,202.768 178.405 C 203.171 178.540,203.356 178.954,203.356 179.721 C 203.356 181.144,203.961 182.484,204.710 182.722 C 205.029 182.823,205.760 183.355,206.334 183.903 C 207.177 184.709,207.668 184.899,208.904 184.899 C 211.469 184.899,212.245 185.909,211.702 188.538 C 211.467 189.674,211.165 190.604,211.031 190.604 C 210.896 190.604,210.692 191.472,210.578 192.534 C 210.227 195.767,209.637 198.993,209.396 198.993 C 209.270 198.993,208.989 199.790,208.771 200.763 C 208.414 202.361,208.247 202.588,207.056 203.104 C 205.991 203.565,205.658 203.936,205.332 205.026 C 205.109 205.768,204.811 206.376,204.669 206.376 C 204.352 206.376,203.356 208.324,203.356 208.944 C 203.356 209.193,203.216 209.396,203.045 209.396 C 202.687 209.396,201.678 211.292,201.678 211.964 C 201.678 212.213,201.537 212.416,201.365 212.416 C 201.193 212.416,200.956 212.717,200.840 213.085 C 200.723 213.453,200.448 213.951,200.230 214.192 C 200.011 214.433,199.504 215.236,199.103 215.977 L 198.374 217.325 199.439 217.865 C 207.471 221.940,218.665 225.008,233.988 227.333 C 240.216 228.278,241.611 228.367,241.611 227.818 C 241.611 227.289,250.230 208.023,255.108 197.651 C 257.131 193.350,257.506 192.507,259.669 187.416 C 262.136 181.610,264.671 175.340,266.250 171.141 C 266.910 169.388,267.688 167.504,267.980 166.955 C 268.329 166.299,268.387 165.916,268.148 165.837 C 267.694 165.685,267.667 164.765,268.117 164.765 C 268.522 164.765,270.134 162.269,270.134 161.641 C 270.134 161.391,270.511 160.445,270.972 159.537 C 271.432 158.629,271.810 157.737,271.811 157.555 C 271.811 157.373,272.169 156.467,272.606 155.542 C 273.042 154.616,273.782 152.953,274.250 151.846 C 275.250 149.479,277.064 145.224,277.684 143.792 C 282.085 133.629,283.558 129.906,283.254 129.718 C 282.958 129.535,261.652 121.083,257.047 119.321 C 255.294 118.650,253.180 117.806,252.349 117.444 C 251.518 117.083,248.272 115.791,245.134 114.572 C 241.997 113.354,235.277 110.724,230.201 108.727 C 219.410 104.482,205.128 98.993,204.872 98.993 C 204.775 98.993,203.940 98.629,203.018 98.185 C 201.155 97.286,201.041 97.329,202.013 98.566 C 202.870 99.655,202.953 102.267,202.140 102.579 C 201.835 102.696,200.652 102.323,199.449 101.730 C 198.269 101.147,197.176 100.671,197.020 100.671 C 196.349 100.671,191.965 108.719,191.947 109.983 C 191.947 110.029,191.660 110.067,191.311 110.067 C 190.114 110.067,190.187 109.015,191.514 107.139 C 192.213 106.150,192.942 105.061,193.134 104.720 C 193.326 104.378,193.654 103.892,193.863 103.641 C 194.226 103.202,195.287 100.445,195.297 99.912 C 195.300 99.771,194.503 99.145,193.526 98.520 C 190.665 96.690,190.363 95.820,192.238 94.802 C 192.864 94.462,192.954 94.318,192.547 94.309 C 192.231 94.301,191.665 94.626,191.288 95.030 M191.443 147.929 C 193.908 149.607,193.987 150.006,193.778 159.732 C 193.393 177.625,192.174 182.148,187.282 183.835 C 183.628 185.095,180.173 183.234,177.734 178.691 C 176.466 176.330,176.979 152.999,178.357 150.334 C 179.381 148.352,181.349 147.500,182.936 148.349 C 183.457 148.628,183.744 148.592,184.182 148.196 C 186.104 146.457,189.117 146.346,191.443 147.929 M215.715 148.955 C 218.512 150.480,217.223 154.362,213.920 154.362 C 212.728 154.362,212.460 154.486,212.283 155.117 C 211.906 156.470,211.376 170.823,211.478 176.955 L 211.577 182.937 210.636 183.750 C 208.938 185.217,207.962 184.909,204.702 181.873 L 203.795 181.028 203.579 173.987 C 203.141 159.722,202.916 154.362,202.757 154.362 C 202.668 154.362,202.049 154.525,201.381 154.724 C 197.915 155.756,196.058 151.778,198.994 149.607 C 200.713 148.336,213.655 147.831,215.715 148.955 M228.520 149.006 C 232.214 148.930,237.963 150.811,238.763 152.357 C 240.137 155.016,237.312 157.205,234.185 155.905 C 231.007 154.584,230.826 154.797,230.391 160.349 L 230.158 163.331 231.727 163.508 C 235.982 163.987,235.786 169.128,231.514 169.128 C 230.607 169.128,229.866 169.279,229.866 169.463 C 229.866 170.514,233.929 169.475,234.853 168.188 C 235.325 167.530,236.913 168.436,236.913 169.364 C 236.913 169.544,237.290 169.863,237.752 170.073 C 238.213 170.283,238.591 170.658,238.591 170.905 C 238.591 171.153,238.991 171.704,239.481 172.129 L 240.371 172.903 239.274 173.364 C 238.671 173.618,237.985 173.826,237.749 173.826 C 237.513 173.826,237.233 174.052,237.127 174.329 C 237.007 174.642,236.495 174.832,235.773 174.832 C 235.134 174.832,234.412 175.023,234.168 175.256 C 233.762 175.644,232.054 176.510,231.696 176.510 C 231.612 176.510,231.544 176.307,231.544 176.058 C 231.544 175.528,230.537 173.400,230.167 173.149 C 230.027 173.054,229.852 172.299,229.780 171.471 C 229.707 170.643,229.621 171.665,229.589 173.742 L 229.530 177.517 232.017 177.517 C 236.788 177.517,237.968 182.034,233.511 183.234 C 231.058 183.894,225.787 182.674,225.270 181.326 C 225.141 180.991,224.653 180.927,223.369 181.078 C 221.939 181.246,221.497 181.164,220.804 180.600 L 219.966 179.920 220.007 171.755 C 220.082 156.466,222.184 148.155,225.809 148.817 C 226.471 148.938,227.691 149.023,228.520 149.006 M253.463 149.554 C 255.984 150.261,258.054 152.081,258.054 153.590 C 258.054 155.817,255.301 157.164,253.430 155.853 C 251.561 154.544,251.719 156.437,253.935 161.913 C 258.634 173.519,258.897 183.227,254.582 185.711 C 250.459 188.084,244.631 186.351,244.631 182.753 C 244.631 180.788,246.973 179.299,248.651 180.198 C 250.839 181.369,249.302 174.747,245.731 167.617 C 245.177 166.510,244.531 165.012,244.297 164.289 C 244.062 163.566,243.571 162.466,243.204 161.845 C 240.988 158.090,243.009 151.007,246.297 151.007 C 246.892 151.007,247.802 150.706,248.319 150.338 C 250.330 148.906,250.864 148.824,253.463 149.554 M187.579 153.551 C 187.577 153.721,187.273 155.294,186.903 157.047 C 185.551 163.467,185.431 177.768,186.741 176.458 C 187.477 175.722,188.493 154.153,187.823 153.483 C 187.692 153.351,187.582 153.382,187.579 153.551 M172.600 171.812 C 172.600 173.381,172.658 174.023,172.729 173.238 C 172.800 172.454,172.800 171.170,172.729 170.386 C 172.658 169.602,172.600 170.243,172.600 171.812 M186.908 171.916 C 186.905 172.874,186.756 173.884,186.577 174.161 C 186.351 174.511,186.250 173.919,186.247 172.212 C 186.244 170.661,186.365 169.835,186.577 169.966 C 186.762 170.081,186.910 170.958,186.908 171.916 M162.691 175.164 C 162.846 179.519,162.547 180.570,160.970 181.205 C 160.468 181.407,160.406 181.508,160.776 181.522 C 162.287 181.582,163.086 179.938,163.111 176.716 C 163.128 174.532,163.225 173.850,163.452 174.329 C 163.781 175.026,163.781 175.032,163.197 172.109 C 162.776 170.003,162.554 171.340,162.691 175.164 M163.760 175.364 C 163.764 176.052,164.475 178.176,164.760 178.353 C 164.929 178.457,164.826 177.820,164.531 176.939 C 163.980 175.285,163.757 174.830,163.760 175.364 M172.174 177.013 C 171.997 181.606,167.985 184.545,166.104 181.460 C 165.738 180.860,165.438 180.538,165.437 180.743 C 165.434 181.744,166.845 182.886,168.085 182.886 C 170.881 182.886,173.028 179.529,172.392 176.150 C 172.308 175.700,172.210 176.086,172.174 177.013 M154.053 178.959 C 154.008 179.985,155.648 181.208,157.069 181.208 C 157.765 181.208,158.611 181.298,158.949 181.407 C 159.460 181.573,159.479 181.546,159.060 181.245 C 158.784 181.046,157.942 180.880,157.189 180.878 C 155.827 180.873,154.721 180.109,154.264 178.859 C 154.121 178.469,154.074 178.492,154.053 178.959 " stroke="none" fill="#f6e45f" fill-rule="evenodd"></path><path id="path1" d="M0.000 167.785 L 0.000 335.570 200.000 335.570 L 400.000 335.570 400.000 167.785 L 400.000 0.000 200.000 0.000 L 0.000 0.000 0.000 167.785 M203.227 85.057 C 208.232 87.581,210.146 90.823,206.460 90.535 L 205.201 90.436 203.615 93.456 C 202.743 95.117,202.063 96.680,202.105 96.928 C 202.172 97.325,205.332 98.639,219.966 104.351 C 223.158 105.596,232.763 109.372,242.617 113.253 C 245.109 114.235,249.715 116.048,252.852 117.283 C 255.990 118.518,261.804 120.809,265.772 122.373 C 269.740 123.937,275.327 126.137,278.188 127.262 C 281.049 128.386,283.510 129.409,283.658 129.536 C 283.928 129.767,283.072 131.990,278.393 143.201 C 276.988 146.567,275.839 149.452,275.839 149.612 C 275.839 149.773,278.101 151.398,280.865 153.224 C 283.630 155.050,285.895 156.728,285.899 156.953 C 285.903 157.179,282.837 162.011,279.085 167.692 C 270.275 181.034,256.831 201.349,251.127 209.939 C 248.661 213.653,246.644 216.776,246.644 216.879 C 246.644 216.983,246.208 218.022,245.675 219.188 C 245.141 220.354,244.233 222.441,243.656 223.826 C 241.575 228.817,241.668 228.703,239.763 228.605 L 238.087 228.519 233.357 235.149 C 230.755 238.795,227.131 243.999,225.303 246.713 C 221.412 252.491,222.400 252.212,215.268 249.546 C 196.858 242.664,189.214 238.609,172.651 226.937 C 171.174 225.897,167.173 223.135,163.758 220.800 C 157.055 216.215,149.637 211.055,147.483 209.478 C 146.288 208.603,135.314 200.888,129.530 196.857 C 128.331 196.021,124.065 193.139,120.050 190.453 C 116.036 187.767,112.752 185.404,112.752 185.202 C 112.752 184.758,112.349 185.336,122.326 171.477 C 135.556 153.100,138.429 148.992,145.565 138.255 C 153.221 126.736,167.318 106.277,168.804 104.530 C 169.307 103.938,170.935 100.404,173.983 93.289 C 176.707 86.928,176.402 87.293,178.334 88.100 C 179.507 88.590,179.599 88.581,180.137 87.917 C 180.702 87.221,180.717 87.226,183.701 89.264 C 188.738 92.702,194.713 94.831,195.838 93.589 C 197.983 91.218,199.941 86.889,199.161 86.242 C 198.648 85.815,198.477 84.521,198.881 84.116 C 199.394 83.604,201.058 83.964,203.227 85.057 " stroke="none" fill="#fbfbfb" fill-rule="evenodd"></path><path id="path2" d="M199.059 84.721 C 198.737 85.428,198.784 85.621,199.383 86.040 C 200.913 87.112,196.613 94.535,194.567 94.356 C 190.648 94.013,190.092 96.324,193.560 98.542 C 195.395 99.716,195.449 99.846,194.780 101.481 C 194.594 101.934,194.633 102.052,194.909 101.881 C 195.387 101.586,195.396 101.722,194.975 102.831 C 194.484 104.122,194.797 103.872,195.788 102.181 C 196.841 100.383,196.743 100.395,199.449 101.730 C 200.652 102.323,201.835 102.696,202.140 102.579 C 202.973 102.259,202.868 99.653,201.976 98.518 L 201.267 97.618 202.840 94.362 C 204.830 90.245,205.165 89.864,206.567 90.127 C 207.496 90.302,207.689 90.219,207.899 89.557 C 208.232 88.506,206.415 86.947,202.828 85.207 C 199.635 83.658,199.549 83.647,199.059 84.721 M156.381 146.573 C 155.974 146.902,155.510 147.771,155.349 148.502 C 155.189 149.234,154.763 150.902,154.403 152.210 C 153.087 156.996,152.470 173.023,153.497 175.748 C 153.759 176.444,154.063 177.556,154.173 178.218 C 154.446 179.868,155.526 180.762,157.550 181.017 C 162.433 181.632,162.886 181.126,162.691 175.272 C 162.555 171.194,162.794 169.950,163.243 172.399 C 163.565 174.154,165.357 179.793,166.042 181.208 C 166.784 182.740,168.401 182.973,170.145 181.799 C 171.823 180.669,172.096 179.431,172.481 171.210 C 173.042 159.193,173.506 152.266,173.853 150.719 C 174.659 147.120,170.118 145.063,168.569 148.325 C 168.135 149.239,167.114 158.685,167.114 161.785 C 167.114 165.859,166.251 163.908,164.254 155.322 C 163.463 151.921,163.238 151.366,162.511 151.035 C 161.851 150.734,161.719 150.486,161.879 149.847 C 162.540 147.212,158.536 144.827,156.381 146.573 M185.916 147.162 C 185.276 147.447,184.495 147.913,184.182 148.196 C 183.744 148.592,183.457 148.628,182.936 148.349 C 181.349 147.500,179.381 148.352,178.357 150.334 C 176.979 152.999,176.466 176.330,177.734 178.691 C 182.080 186.786,190.398 185.930,192.400 177.181 C 193.727 171.388,194.418 152.080,193.373 150.009 C 192.115 147.514,188.352 146.078,185.916 147.162 M201.343 148.671 C 198.382 149.290,196.935 151.125,197.792 153.175 C 198.425 154.690,199.678 155.231,201.381 154.724 C 202.049 154.525,202.668 154.362,202.757 154.362 C 202.916 154.362,203.141 159.722,203.579 173.987 L 203.795 181.028 204.702 181.873 C 207.962 184.909,208.938 185.217,210.636 183.750 L 211.577 182.937 211.478 176.955 C 211.376 170.823,211.906 156.470,212.283 155.117 C 212.460 154.486,212.728 154.362,213.920 154.362 C 217.223 154.362,218.512 150.480,215.715 148.955 C 214.747 148.427,203.569 148.206,201.343 148.671 M223.742 149.382 C 221.529 151.398,220.064 160.173,220.007 171.755 L 219.966 179.920 220.804 180.600 C 221.497 181.164,221.939 181.246,223.369 181.078 C 224.653 180.927,225.141 180.991,225.270 181.326 C 225.787 182.674,231.058 183.894,233.511 183.234 C 237.968 182.034,236.788 177.517,232.017 177.517 L 229.530 177.517 229.535 174.077 C 229.541 169.243,229.588 169.128,231.553 169.128 C 235.791 169.128,235.951 163.984,231.727 163.508 L 230.158 163.331 230.391 160.349 C 230.826 154.797,231.007 154.584,234.185 155.905 C 237.312 157.205,240.137 155.016,238.763 152.357 C 237.963 150.811,232.214 148.930,228.520 149.006 C 227.691 149.023,226.471 148.938,225.809 148.817 C 224.828 148.638,224.445 148.742,223.742 149.382 M250.049 149.352 C 249.614 149.526,248.836 149.970,248.319 150.338 C 247.802 150.706,246.892 151.007,246.297 151.007 C 243.009 151.007,240.988 158.090,243.204 161.845 C 243.571 162.466,244.062 163.566,244.297 164.289 C 244.531 165.012,245.177 166.510,245.731 167.617 C 249.302 174.747,250.839 181.369,248.651 180.198 C 246.973 179.299,244.631 180.788,244.631 182.753 C 244.631 186.351,250.459 188.084,254.582 185.711 C 258.897 183.227,258.634 173.519,253.935 161.913 C 251.719 156.437,251.561 154.544,253.430 155.853 C 255.301 157.164,258.054 155.817,258.054 153.590 C 258.054 151.143,252.681 148.298,250.049 149.352 M187.965 160.838 C 187.879 167.162,187.185 176.014,186.741 176.458 C 185.431 177.768,185.551 163.467,186.903 157.047 C 187.273 155.294,187.577 153.721,187.579 153.551 C 187.582 153.382,187.692 153.351,187.823 153.483 C 187.955 153.615,188.019 156.924,187.965 160.838 " stroke="none" fill="#f95206" fill-rule="evenodd"></path><path id="path3" d="M199.161 88.255 C 198.875 88.809,198.716 89.262,198.808 89.262 C 198.901 89.262,199.210 88.809,199.497 88.255 C 199.783 87.701,199.942 87.248,199.849 87.248 C 199.757 87.248,199.447 87.701,199.161 88.255 M175.709 89.346 C 175.274 90.315,174.531 92.013,174.058 93.121 C 173.585 94.228,172.264 97.248,171.123 99.832 C 168.749 105.207,168.294 106.345,168.710 105.872 C 168.872 105.688,169.506 104.404,170.118 103.020 C 172.887 96.760,173.899 94.923,174.457 95.143 C 174.967 95.345,181.095 96.986,184.060 97.715 C 186.023 98.198,191.063 98.901,191.377 98.737 C 191.526 98.659,191.412 98.237,191.126 97.800 C 189.960 96.020,191.056 94.310,193.386 94.273 L 194.799 94.250 193.289 93.827 C 192.106 93.496,182.574 89.821,177.920 87.902 C 176.689 87.394,176.544 87.489,175.709 89.346 M204.961 90.520 C 204.343 91.228,203.600 92.617,203.839 92.617 C 203.933 92.617,204.248 92.157,204.539 91.593 C 204.830 91.030,205.401 90.436,205.806 90.272 C 206.298 90.074,206.365 89.968,206.008 89.954 C 205.714 89.942,205.243 90.197,204.961 90.520 M201.716 97.260 C 201.898 97.809,202.410 98.024,214.933 102.812 C 220.470 104.930,229.058 108.265,234.018 110.224 C 238.979 112.183,243.098 113.725,243.172 113.651 C 243.247 113.576,242.133 113.054,240.698 112.490 C 239.262 111.926,235.596 110.484,232.550 109.285 C 229.505 108.086,224.446 106.104,221.309 104.879 C 218.171 103.655,212.659 101.503,209.060 100.097 C 205.461 98.691,202.303 97.377,202.043 97.176 C 201.685 96.901,201.605 96.922,201.716 97.260 M167.516 108.046 C 167.131 108.973,166.888 109.732,166.977 109.732 C 167.201 109.732,168.503 106.646,168.345 106.488 C 168.275 106.418,167.902 107.119,167.516 108.046 M191.102 107.665 C 190.598 108.428,190.336 109.182,190.462 109.511 C 190.712 110.162,191.797 110.256,192.048 109.648 C 192.143 109.417,192.463 108.662,192.759 107.970 C 193.473 106.301,193.147 106.358,192.282 108.054 C 191.905 108.792,191.449 109.396,191.268 109.396 C 190.765 109.396,190.871 108.879,191.644 107.570 C 192.588 105.970,192.176 106.043,191.102 107.665 M165.604 112.300 C 165.322 112.974,165.169 113.603,165.264 113.698 C 165.359 113.793,165.436 113.788,165.436 113.688 C 165.436 113.587,165.665 112.958,165.944 112.289 C 166.223 111.621,166.376 111.074,166.284 111.074 C 166.192 111.074,165.886 111.626,165.604 112.300 M243.663 113.884 C 243.777 114.012,245.816 114.882,248.194 115.817 C 250.571 116.753,253.253 117.811,254.152 118.169 C 255.052 118.528,255.850 118.758,255.926 118.682 C 256.003 118.606,253.530 117.548,250.432 116.332 C 243.784 113.721,243.393 113.580,243.663 113.884 M163.986 115.955 C 163.198 117.608,163.309 117.890,164.133 116.327 C 164.507 115.618,164.754 114.978,164.682 114.905 C 164.609 114.833,164.296 115.305,163.986 115.955 M162.471 119.310 C 161.908 120.544,162.016 120.807,162.624 119.685 C 162.907 119.161,163.077 118.670,163.000 118.593 C 162.923 118.516,162.685 118.839,162.471 119.310 M257.215 119.312 C 257.768 119.574,263.798 121.989,270.614 124.677 C 277.431 127.366,283.122 129.637,283.262 129.723 C 283.402 129.810,283.290 130.422,283.014 131.084 C 282.737 131.746,282.576 132.353,282.656 132.433 C 282.736 132.513,283.055 131.945,283.364 131.172 C 284.058 129.439,284.419 129.711,278.188 127.261 C 275.327 126.136,269.326 123.771,264.853 122.004 C 257.421 119.069,254.619 118.082,257.215 119.312 M157.773 130.048 C 157.210 131.282,157.318 131.545,157.926 130.423 C 158.210 129.899,158.379 129.408,158.302 129.331 C 158.226 129.255,157.987 129.577,157.773 130.048 M281.780 134.141 C 281.483 134.835,280.536 137.064,279.675 139.094 C 278.815 141.124,277.917 143.238,277.680 143.792 C 276.656 146.181,275.037 149.982,274.250 151.846 C 273.782 152.953,273.042 154.616,272.606 155.542 C 272.169 156.467,271.811 157.373,271.811 157.555 C 271.810 157.737,271.432 158.629,270.972 159.537 C 270.511 160.445,270.134 161.391,270.134 161.641 C 270.134 162.269,268.522 164.765,268.117 164.765 C 267.667 164.765,267.694 165.685,268.148 165.837 C 268.387 165.916,268.329 166.299,267.980 166.955 C 267.688 167.504,266.911 169.388,266.253 171.141 C 264.725 175.210,260.541 185.473,258.743 189.557 C 257.981 191.288,257.416 192.763,257.487 192.834 C 257.717 193.063,259.149 189.678,271.349 160.067 C 273.288 155.361,275.090 151.057,275.353 150.503 C 276.511 148.063,282.572 133.131,282.452 133.012 C 282.379 132.939,282.077 133.447,281.780 134.141 M154.417 138.102 C 153.855 139.336,153.962 139.599,154.570 138.477 C 154.854 137.953,155.023 137.462,154.947 137.385 C 154.870 137.308,154.631 137.631,154.417 138.102 M149.719 149.175 C 149.157 150.409,149.264 150.673,149.872 149.551 C 150.156 149.027,150.325 148.536,150.249 148.459 C 150.172 148.382,149.933 148.705,149.719 149.175 M148.397 152.248 C 148.210 152.765,145.076 159.681,141.432 167.617 C 129.775 193.001,130.734 189.896,134.144 191.219 C 138.862 193.050,146.639 196.299,159.564 201.839 C 172.405 207.343,174.953 208.420,192.114 215.600 C 203.941 220.548,206.955 221.689,213.255 223.602 C 219.795 225.588,240.628 229.187,241.491 228.480 C 241.702 228.307,242.064 227.680,242.296 227.086 C 242.808 225.776,244.463 221.866,245.380 219.799 C 246.973 216.205,252.886 203.257,254.247 200.378 C 255.065 198.649,255.659 197.158,255.566 197.065 C 255.473 196.972,255.035 197.708,254.591 198.700 C 254.148 199.692,251.823 204.807,249.424 210.067 C 243.701 222.618,241.611 227.366,241.611 227.818 C 241.611 228.367,240.216 228.278,233.988 227.333 C 218.665 225.008,207.471 221.940,199.439 217.865 L 198.374 217.325 199.103 215.977 C 199.504 215.236,200.011 214.433,200.230 214.192 C 200.448 213.951,200.723 213.453,200.840 213.085 C 200.956 212.717,201.193 212.416,201.365 212.416 C 201.537 212.416,201.678 212.213,201.678 211.964 C 201.678 211.292,202.687 209.396,203.045 209.396 C 203.216 209.396,203.356 209.193,203.356 208.944 C 203.356 208.324,204.352 206.376,204.669 206.376 C 204.811 206.376,205.109 205.768,205.332 205.026 C 205.658 203.936,205.991 203.565,207.056 203.104 C 208.247 202.588,208.414 202.361,208.771 200.763 C 208.989 199.790,209.270 198.993,209.396 198.993 C 209.637 198.993,210.227 195.767,210.578 192.534 C 210.692 191.472,210.896 190.604,211.031 190.604 C 211.165 190.604,211.467 189.674,211.702 188.538 C 212.245 185.909,211.469 184.899,208.904 184.899 C 207.668 184.899,207.177 184.709,206.334 183.903 C 205.760 183.355,205.029 182.823,204.710 182.722 C 203.961 182.484,203.356 181.144,203.356 179.721 C 203.356 178.954,203.171 178.540,202.768 178.405 C 202.142 178.194,200.949 177.480,200.671 177.149 C 200.579 177.039,200.099 176.850,199.604 176.729 C 199.109 176.608,198.484 176.288,198.213 176.018 C 197.943 175.747,197.064 175.268,196.260 174.951 C 195.456 174.635,194.678 174.177,194.530 173.933 C 193.893 172.880,193.352 173.515,193.122 175.587 C 192.513 181.084,189.255 184.599,184.826 184.540 C 182.076 184.504,180.145 183.102,177.789 179.433 L 176.678 177.701 176.562 171.776 C 176.437 165.390,176.340 165.101,174.313 165.101 C 174.045 165.101,173.826 164.950,173.826 164.765 C 173.826 164.581,173.599 164.430,173.322 164.430 C 172.901 164.430,172.817 165.152,172.807 168.876 C 172.801 171.321,172.657 174.908,172.487 176.846 L 172.177 180.369 170.777 181.628 C 168.364 183.796,166.166 183.263,165.402 180.325 C 165.217 179.611,164.851 178.574,164.589 178.020 C 164.327 177.466,163.898 176.258,163.635 175.336 L 163.157 173.658 163.122 176.716 C 163.075 180.832,162.333 181.735,159.263 181.415 C 158.175 181.301,156.951 181.208,156.543 181.208 C 155.403 181.208,154.027 179.742,154.027 178.528 C 154.027 177.959,153.767 177.096,153.449 176.612 C 153.032 175.975,152.835 174.812,152.739 172.429 C 152.592 168.774,152.593 168.774,151.186 169.984 C 150.639 170.455,149.695 171.147,149.089 171.521 C 148.482 171.896,147.987 172.317,147.987 172.457 C 147.987 172.597,147.647 172.871,147.232 173.067 C 146.157 173.574,144.297 175.197,144.286 175.636 C 144.258 176.814,134.393 187.919,133.374 187.919 C 132.644 187.919,132.877 187.365,142.931 165.161 C 146.300 157.719,148.985 151.557,148.896 151.469 C 148.808 151.380,148.583 151.731,148.397 152.248 M234.853 168.188 C 234.183 169.121,232.628 169.799,231.156 169.799 L 229.866 169.799 229.866 171.477 C 229.866 172.399,229.988 173.154,230.137 173.154 C 230.434 173.154,231.544 175.493,231.544 176.119 C 231.544 176.334,231.612 176.510,231.696 176.510 C 232.054 176.510,233.762 175.644,234.168 175.256 C 234.412 175.023,235.134 174.832,235.773 174.832 C 236.495 174.832,237.007 174.642,237.127 174.329 C 237.233 174.052,237.513 173.826,237.749 173.826 C 237.985 173.826,238.671 173.618,239.274 173.364 L 240.371 172.903 239.481 172.129 C 238.991 171.704,238.591 171.153,238.591 170.905 C 238.591 170.658,238.213 170.283,237.752 170.073 C 237.290 169.863,236.913 169.544,236.913 169.364 C 236.913 168.436,235.325 167.530,234.853 168.188 M186.247 172.212 C 186.250 173.919,186.351 174.511,186.577 174.161 C 187.006 173.497,187.006 170.232,186.577 169.966 C 186.365 169.835,186.244 170.661,186.247 172.212 M256.775 194.044 C 256.231 195.109,255.694 196.644,255.865 196.644 C 256.067 196.644,257.416 193.546,257.275 193.405 C 257.212 193.342,256.987 193.629,256.775 194.044 " stroke="none" fill="#f3eb82" fill-rule="evenodd"></path><path id="path4" d="M180.196 87.758 C 179.620 88.452,179.868 88.638,183.022 89.893 C 186.898 91.435,186.716 91.184,181.507 87.802 C 180.715 87.287,180.590 87.283,180.196 87.758 M192.991 105.217 C 190.906 108.850,190.622 109.558,191.344 109.317 C 191.848 109.149,195.516 102.115,195.242 101.842 C 195.132 101.732,194.119 103.250,192.991 105.217 M163.514 111.997 C 156.255 122.357,151.773 128.915,145.565 138.255 C 138.429 148.992,135.556 153.100,122.326 171.477 C 112.349 185.336,112.752 184.758,112.752 185.202 C 112.752 185.404,116.036 187.767,120.050 190.453 C 124.065 193.139,128.331 196.021,129.530 196.857 C 135.314 200.888,146.288 208.603,147.483 209.478 C 149.637 211.055,157.055 216.215,163.758 220.800 C 167.173 223.135,171.174 225.897,172.651 226.937 C 189.214 238.609,196.858 242.664,215.268 249.546 C 222.396 252.210,221.431 252.468,225.168 246.903 C 226.921 244.291,230.508 239.171,233.138 235.525 C 235.768 231.879,237.919 228.762,237.919 228.600 C 237.919 228.437,236.473 228.115,234.704 227.883 C 219.173 225.851,210.945 223.478,192.114 215.600 C 174.953 208.420,172.405 207.343,159.564 201.839 C 146.639 196.299,138.862 193.050,134.144 191.219 C 130.735 189.896,129.770 193.025,141.425 167.617 C 147.505 154.361,150.681 147.146,155.380 135.906 C 157.875 129.940,159.038 127.210,159.744 125.671 C 160.082 124.933,161.519 121.686,162.938 118.456 C 164.356 115.227,165.786 111.980,166.116 111.242 C 166.446 110.503,167.121 108.993,167.616 107.886 C 169.789 103.023,169.829 102.983,163.514 111.997 M275.244 150.755 C 275.039 151.170,273.285 155.361,271.347 160.067 C 260.350 186.773,260.287 186.924,255.988 196.644 C 255.457 197.844,254.891 199.061,254.729 199.349 C 254.447 199.853,250.068 209.368,248.446 213.003 C 247.215 215.762,247.690 215.184,251.894 208.809 C 254.055 205.533,259.522 197.265,264.043 190.436 C 282.512 162.544,285.906 157.345,285.899 156.953 C 285.893 156.601,276.307 150.000,275.801 150.000 C 275.699 150.000,275.449 150.340,275.244 150.755 " stroke="none" fill="#bfd7ef" fill-rule="evenodd"></path></g></svg>